<?xml version="1.0" encoding="UTF-8" standalone="no"?>
<!-- Created with Inkscape (http://www.inkscape.org/) -->

<svg
   width="417.59821mm"
   height="150.38597mm"
   viewBox="0 0 417.5982 150.38597"
   version="1.1"
   id="svg1"
   sodipodi:docname="KurrawongAI-master.svg"
   inkscape:version="1.4 (e7c3feb1, 2024-10-09)"
   inkscape:export-filename="KurrawongAI-inverted.svg"
   inkscape:export-xdpi="96"
   inkscape:export-ydpi="96"
   xmlns:inkscape="http://www.inkscape.org/namespaces/inkscape"
   xmlns:sodipodi="http://sodipodi.sourceforge.net/DTD/sodipodi-0.dtd"
   xmlns="http://www.w3.org/2000/svg"
   xmlns:svg="http://www.w3.org/2000/svg">
  <sodipodi:namedview
     id="namedview1"
     pagecolor="#000000"
     bordercolor="#000000"
     borderopacity="0.25"
     inkscape:showpageshadow="2"
     inkscape:pageopacity="0.0"
     inkscape:pagecheckerboard="0"
     inkscape:deskcolor="#d1d1d1"
     inkscape:document-units="mm"
     inkscape:zoom="0.44943533"
     inkscape:cx="1099.157"
     inkscape:cy="52.287835"
     inkscape:window-width="1808"
     inkscape:window-height="1186"
     inkscape:window-x="940"
     inkscape:window-y="61"
     inkscape:window-maximized="0"
     inkscape:current-layer="layer2"
     showguides="true"
     inkscape:export-bgcolor="#000000ff">
    <inkscape:page
       x="2.9189756e-18"
       y="0"
       width="417.59818"
       height="150.38597"
       id="page2"
       margin="0"
       bleed="0" />
  </sodipodi:namedview>
  <defs
     id="defs1">
    <clipPath
       clipPathUnits="userSpaceOnUse"
       id="clipPath30">
      <path
         d="M 0,595.28 H 841.89 V 0 H 0 Z"
         transform="translate(-617.95181,-420.01221)"
         id="path30" />
    </clipPath>
    <clipPath
       clipPathUnits="userSpaceOnUse"
       id="clipPath28">
      <path
         d="M 0,595.28 H 841.89 V 0 H 0 Z"
         transform="translate(-537.80182,-366.50951)"
         id="path28" />
    </clipPath>
    <clipPath
       clipPathUnits="userSpaceOnUse"
       id="clipPath26">
      <path
         d="M 0,595.28 H 841.89 V 0 H 0 Z"
         transform="translate(-341.34191,-270.72291)"
         id="path26" />
    </clipPath>
    <clipPath
       clipPathUnits="userSpaceOnUse"
       id="clipPath24">
      <path
         d="M 0,595.28 H 841.89 V 0 H 0 Z"
         transform="translate(-378.33151,-237.65301)"
         id="path24" />
    </clipPath>
    <clipPath
       clipPathUnits="userSpaceOnUse"
       id="clipPath22">
      <path
         d="M 0,595.28 H 841.89 V 0 H 0 Z"
         transform="translate(-373.11261,-270.31211)"
         id="path22" />
    </clipPath>
    <clipPath
       clipPathUnits="userSpaceOnUse"
       id="clipPath20">
      <path
         d="M 0,595.28 H 841.89 V 0 H 0 Z"
         transform="translate(-421.65141,-238.06371)"
         id="path20" />
    </clipPath>
    <clipPath
       clipPathUnits="userSpaceOnUse"
       id="clipPath18">
      <path
         d="M 0,595.28 H 841.89 V 0 H 0 Z"
         transform="translate(-300.56821,-183.97931)"
         id="path18" />
    </clipPath>
    <clipPath
       clipPathUnits="userSpaceOnUse"
       id="clipPath16">
      <path
         d="M 0,595.28 H 841.89 V 0 H 0 Z"
         transform="translate(-308.36081,-134.8962)"
         id="path16" />
    </clipPath>
    <clipPath
       clipPathUnits="userSpaceOnUse"
       id="clipPath14">
      <path
         d="M 0,595.28 H 841.89 V 0 H 0 Z"
         transform="translate(-299.2207,-251.4531)"
         id="path14" />
    </clipPath>
    <clipPath
       clipPathUnits="userSpaceOnUse"
       id="clipPath12">
      <path
         d="M 0,595.28 H 841.89 V 0 H 0 Z"
         transform="translate(-286.354,-191.78831)"
         id="path12" />
    </clipPath>
    <clipPath
       clipPathUnits="userSpaceOnUse"
       id="clipPath10">
      <path
         d="M 0,595.28 H 841.89 V 0 H 0 Z"
         transform="translate(-417.33331,-464.19671)"
         id="path10" />
    </clipPath>
    <clipPath
       clipPathUnits="userSpaceOnUse"
       id="clipPath8">
      <path
         d="M 0,595.28 H 841.89 V 0 H 0 Z"
         transform="translate(-412.33331,-466.61331)"
         id="path8" />
    </clipPath>
    <clipPath
       clipPathUnits="userSpaceOnUse"
       id="clipPath6">
      <path
         d="M 0,595.28 H 841.89 V 0 H 0 Z"
         transform="translate(-430.50791,-477.71821)"
         id="path6" />
    </clipPath>
    <clipPath
       clipPathUnits="userSpaceOnUse"
       id="clipPath4">
      <path
         d="M 0,595.28 H 841.89 V 0 H 0 Z"
         transform="translate(-308.36081,-134.8962)"
         id="path4" />
    </clipPath>
    <clipPath
       clipPathUnits="userSpaceOnUse"
       id="clipPath2">
      <path
         d="M 0,595.28 H 841.89 V 0 H 0 Z"
         transform="translate(-428.13301,-407.02771)"
         id="path2" />
    </clipPath>
  </defs>
  <g
     inkscape:groupmode="layer"
     id="g45"
     inkscape:label="Bird-inverted"
     style="display:inline"
     transform="translate(-0.01863354)">
    <path
       id="path31"
       d="m 0,0 c 5.482,-8.732 8.117,-12.248 19.117,-9.748 11,2.5 37.5,12 44.5,12.25 7,0.25 58.5,0.5 62,1.25 13.431,2.916 23,8.25 39,30 -10.715,-17.101 -16.125,-23.625 -30.612,-30.003 35.987,4.253 72.612,24.253 88.362,59.753 -8.935,-25.158 -25.77,-41.627 -47.762,-51.758 -1.392,-0.641 -0.051,-0.929 2.199,-0.304 15.874,4.636 53.431,8.102 86.063,63.062 -19.75,-41.5 -48.75,-56.75 -69.107,-62.619 -7.899,-2.277 -3.346,-4.332 2.857,-3.131 40,7.75 73.519,32.049 84,51.639 -5,-15.639 -23,-37.139 -72,-54.257 -5.758,-2.011 -5.014,-5.065 4.25,-3.132 44.304,9.246 62.75,19 79.75,34.5 -7.5,-13 -34.25,-31.368 -72.5,-41.5 -2.921,-0.476 -8.25,-6.25 4.75,-5.25 16,1.5 54.239,7.786 66,11.5 4.75,1.5 -25.402,-22.032 -67.152,-28.032 -3.966,-0.609 -2.296,-2.964 4.152,-3.634 8.996,-0.936 25.421,-0.199 32.25,-1.084 5.593,-0.724 -12.217,-8.088 -33.25,-10 -24.75,-2.25 11.333,-3.333 1.75,-10.25 -7,-5.5 -22.501,-11.665 -37.751,-10.415 21.75,-5.5 12.115,-12.061 8.501,-16.085 -2.158,-2.403 -14.5,-10 -26.328,-4.605 6.25,-6.75 3.732,-9.74 1.328,-12.145 -4,-4 -10,-4.25 -14,-2 -2.75,-9.5 -12.5,-7.5 -18.5,-1.158 2.438,-7.342 -2.5,-19.092 -8,-13.592 -0.75,-3 -5.75,-6.75 -11.5,-2 -2.577,-4.799 -10.75,-11.75 -16.5,-10.25 -8,-6.25 -17.5,-7 -25.75,-3.5 -7,-4.42 -20,-3.393 -23.5,-0.571 -4.5,-1.929 -12.75,-1.679 -15.25,1.321 -5,-9 -14.75,-6.25 -24.25,8.25 -16.75,-10.268 -19.484,-0.75 -17.117,28 2.367,28.75 -11.743,79.25 -7.188,84 C -2.633,-0.748 0,0 0,0"
       style="fill:#ffffff;fill-opacity:1;fill-rule:nonzero;stroke:none"
       transform="matrix(0.35277777,0,0,-0.35277777,55.123257,26.282649)"
       clip-path="url(#clipPath2)" />
    <path
       id="path32"
       d="M 0,0 C -1.894,0 -3.729,1.668 -4.183,3.211 -4.517,2.964 -4.896,2.835 -5.299,2.835 -6.023,2.835 -6.783,3.243 -7.44,3.984 -8.2,4.841 -8.935,6.324 -8.992,8.143 -10.011,6.638 -11.484,6.194 -13.029,5.729 -14.123,5.4 -15.253,5.06 -16.394,4.339 -17.848,3.42 -19.09,2.974 -20.189,2.974 c -1.367,0 -2.546,0.692 -3.6,2.115 -0.357,-0.11 -0.722,-0.165 -1.09,-0.165 -2.519,0 -4.923,2.646 -5.84,5.249 -0.844,0.221 -1.484,0.679 -1.905,1.365 -0.825,1.346 -0.552,3.154 -0.436,3.728 -0.523,0.349 -2.174,1.624 -2.866,4.196 -0.826,3.075 0.02,6.792 2.516,11.048 5.314,7.04 11.85,22.955 14.311,28.947 0.393,0.957 0.682,1.659 0.843,2.027 0.324,0.743 0.254,0.905 0.251,0.912 -0.422,-0.015 -1.604,-0.779 -2.748,-1.517 -0.52,-0.336 -1.076,-0.695 -1.644,-1.042 l -0.345,-0.211 -0.034,0.403 c -1.19,13.93 10.937,60.845 13.181,66.777 l -0.02,0.041 c -0.165,5.6 -0.603,20.477 6.844,51.262 7.729,31.945 23.043,74.833 29.694,86.234 3.704,6.35 9.201,11.394 14.05,15.844 4.262,3.912 7.944,7.291 9.098,10.449 10.439,30.864 24.006,46.752 42.692,49.994 9.252,1.605 21.085,1.942 29.383,1.942 10.097,0 19.112,-0.485 24.183,-0.939 9.613,-0.861 30.745,-5.492 34.706,-14.313 l 0.298,-0.664 -0.644,0.341 c -0.012,0.006 -1.226,0.639 -2.726,0.639 -0.437,0 -0.861,-0.053 -1.259,-0.16 -7.641,-2.149 -20.255,-4.814 -29.465,-6.761 -3.647,-0.77 -6.795,-1.435 -8.877,-1.908 -7.031,-1.598 -17.375,-9.94 -20.497,-16.53 -3.737,-7.889 -6.107,-18.109 4.648,-34.087 10.356,-15.385 10.512,-24.089 10.638,-31.084 0.016,-0.925 0.032,-1.825 0.071,-2.711 0.31,-7.114 -3.467,-44.224 -8.28,-45.256 -1.17,-0.25 -1.942,-0.416 -2.51,-0.416 -1.028,10e-4 -1.37,0.54 -1.689,1.795 -2.605,-14.513 -10.165,-28.466 -13.897,-33.941 C 102.423,150.088 78.536,122.95 50.58,118.411 44.88,100.83 34.145,74.386 34.037,74.123 32.872,71.262 27.912,52.343 23.926,37.142 21.695,28.632 19.769,21.284 19.045,18.813 18.315,16.319 18.008,14.405 17.784,13.008 17.412,10.693 17.222,9.509 15.532,9.466 15.083,5.532 11.675,3.126 9.363,3.126 c -0.021,0 -0.042,0 -0.063,0 C 8.471,1.255 7.376,0.344 5.959,0.344 4.921,0.344 3.907,0.833 3.012,1.263 L 2.713,1.406 C 1.964,0.485 1.03,0 0,0"
       style="fill:#ffffff;fill-opacity:1;fill-rule:nonzero;stroke:none"
       transform="matrix(0.35277777,0,0,-0.35277777,12.870286,122.28459)"
       clip-path="url(#clipPath4)" />
    <path
       id="path33"
       d="m 0,0 c -8.308,0 -20.157,-0.338 -29.427,-1.946 -18.786,-3.258 -32.414,-19.199 -42.888,-50.165 -1.129,-3.09 -4.79,-6.45 -9.028,-10.34 -4.863,-4.462 -10.374,-9.52 -14.097,-15.902 -6.659,-11.416 -21.987,-54.337 -29.721,-86.301 -7.456,-30.82 -7.016,-45.72 -6.851,-51.329 l 0.001,-0.039 c -2.335,-6.321 -14.348,-52.902 -13.162,-66.792 l 0.069,-0.806 0.69,0.422 c 0.57,0.348 1.128,0.708 1.65,1.045 0.813,0.525 1.787,1.154 2.309,1.378 -0.035,-0.113 -0.091,-0.264 -0.178,-0.463 -0.161,-0.368 -0.449,-1.07 -0.842,-2.027 -2.458,-5.984 -8.986,-21.88 -14.265,-28.872 l -0.018,-0.023 -0.015,-0.025 c -2.531,-4.316 -3.386,-8.098 -2.542,-11.24 0.66,-2.453 2.175,-3.77 2.833,-4.244 -0.128,-0.73 -0.304,-2.437 0.498,-3.745 0.434,-0.708 1.081,-1.192 1.926,-1.441 0.979,-2.646 3.442,-5.293 6.032,-5.293 0.335,0 0.667,0.043 0.993,0.128 1.079,-1.397 2.29,-2.078 3.696,-2.078 1.149,0 2.434,0.459 3.929,1.404 1.113,0.702 2.226,1.038 3.304,1.362 1.401,0.421 2.744,0.826 3.769,1.987 0.168,-1.393 0.716,-2.706 1.561,-3.659 0.705,-0.795 1.532,-1.232 2.327,-1.232 0.348,0 0.679,0.083 0.983,0.245 0.61,-1.543 2.39,-3.081 4.317,-3.081 0.749,0 1.812,0.243 2.78,1.348 0.041,-0.02 0.082,-0.04 0.124,-0.06 0.919,-0.442 1.96,-0.944 3.055,-0.944 1.488,0 2.637,0.911 3.503,2.783 2.361,0.066 5.739,2.458 6.292,6.351 1.698,0.14 1.91,1.456 2.277,3.741 0.223,1.391 0.529,3.295 1.255,5.774 0.723,2.474 2.65,9.823 4.882,18.334 3.983,15.195 8.941,34.106 10.101,36.952 0.107,0.262 10.798,26.603 16.502,44.16 27.978,4.625 51.855,31.752 56.281,38.246 3.661,5.371 10.994,18.875 13.758,33.083 0.31,-0.696 0.758,-1.045 1.622,-1.045 0.595,0 1.377,0.168 2.562,0.422 2.201,0.471 4.296,7.335 6.229,20.399 1.545,10.439 2.41,21.412 2.249,25.112 -0.038,0.882 -0.054,1.768 -0.071,2.706 -0.127,7.027 -0.284,15.772 -10.681,31.218 -12.125,18.015 -7.062,28.703 -4.629,33.84 3.037,6.412 13.485,14.838 20.326,16.393 2.078,0.472 5.222,1.137 8.863,1.906 9.217,1.947 21.84,4.614 29.494,6.767 0.371,0.099 0.773,0.15 1.189,0.15 1.433,0 2.597,-0.605 2.609,-0.611 l 1.283,-0.676 -0.593,1.323 C 55.109,-6.478 33.864,-1.805 24.203,-0.94 19.128,-0.486 10.104,0 0,0 m 0,-0.5 c 9.69,0 18.698,-0.449 24.159,-0.938 11.166,-1 30.833,-6 34.5,-14.167 0,0 -1.257,0.669 -2.843,0.669 -0.423,0 -0.871,-0.048 -1.324,-0.169 -10.667,-3 -31,-7 -38.333,-8.667 -7.334,-1.666 -17.667,-10.333 -20.667,-16.666 -3,-6.334 -7,-17 4.667,-34.334 11.666,-17.333 10.333,-26 10.666,-33.666 0.334,-7.667 -3.622,-44.044 -8.083,-45 -1.145,-0.246 -1.915,-0.411 -2.457,-0.411 -1.116,0 -1.266,0.699 -1.725,2.835 -2.333,-14.667 -10.054,-29.203 -14.068,-35.091 -4.001,-5.869 -28,-33.583 -56.25,-38.083 -5.5,-17 -15.916,-42.78 -16.583,-44.417 -1.834,-4.5 -13,-48.5 -15,-55.333 -1.967,-6.721 -0.871,-9.169 -3.371,-9.169 -0.042,0 -0.085,0.001 -0.129,0.002 -0.323,-3.874 -3.616,-6.341 -5.943,-6.341 -0.076,0 -0.151,0.003 -0.224,0.008 -0.906,-2.143 -2.037,-2.79 -3.18,-2.79 -1.169,0 -2.351,0.677 -3.32,1.123 -0.791,-1.055 -1.725,-1.467 -2.639,-1.467 -1.973,0 -3.857,1.921 -4.028,3.44 -0.376,-0.417 -0.815,-0.604 -1.272,-0.604 -1.768,0 -3.792,2.82 -3.394,6.131 -1.5,-3.5 -4.667,-2.667 -7.834,-4.667 -1.396,-0.881 -2.597,-1.326 -3.662,-1.326 -1.35,0 -2.479,0.715 -3.504,2.16 -0.398,-0.144 -0.794,-0.21 -1.185,-0.21 -2.553,0 -4.853,2.825 -5.649,5.21 -3.333,0.75 -2.25,5 -2.25,5 0,0 -6.916,3.916 -0.416,15 6.166,8.166 14,28.333 15.166,31 0.393,0.897 0.352,1.247 0.01,1.247 -0.674,0 -2.519,-1.364 -4.51,-2.581 -1.166,13.667 10.834,60.5 13.167,66.667 -0.167,5.667 -0.667,20.333 6.833,51.333 7.5,31 22.667,74.167 29.667,86.167 7,12 20.686,19.543 23.167,26.333 11.5,34 26.166,47 42.5,49.834 C -20.995,-0.99 -10.125,-0.5 0,-0.5"
       style="display:none;fill:#ffffff;fill-opacity:1;fill-rule:nonzero;stroke:none"
       transform="matrix(0.35277777,0,0,-0.35277777,55.961066,1.3446107)"
       clip-path="url(#clipPath6)" />
    <path
       id="path34"
       d="M 0,0 C 2.333,1.167 5.5,1.333 6.833,-1.333 8.167,-4 5.333,-6.667 3.417,-6.667 1.5,-6.667 -1.333,-5.333 -1.5,-4 -1.667,-2.667 0,0 0,0"
       style="display:inline;fill:#eed80d;fill-opacity:1;fill-rule:nonzero;stroke:none"
       transform="matrix(0.35277777,0,0,-0.35277777,49.549473,5.2621717)"
       clip-path="url(#clipPath8)" />
    <path
       id="path35"
       d="m 0,0 c 0,-0.874 -0.784,-1.583 -1.75,-1.583 -0.967,0 -1.75,0.709 -1.75,1.583 0,0.874 0.783,1.583 1.75,1.583 C -0.784,1.583 0,0.874 0,0"
       style="display:inline;fill:#231f20;fill-opacity:1;fill-rule:nonzero;stroke:none"
       transform="matrix(0.35277777,0,0,-0.35277777,51.313363,6.1146936)"
       clip-path="url(#clipPath10)" />
    <path
       id="path36"
       d="m 0,0 c -0.282,0 -0.67,0.126 -0.918,0.729 -1.29,3.134 -0.516,14.035 2.658,24.667 3.297,11.045 10.761,32.463 10.837,32.678 l 0.262,0.754 0.214,-0.769 c 0.725,-2.61 2.343,-5.418 4.181,-5.418 0.47,0 0.95,0.185 1.427,0.549 l 0.628,0.481 -0.238,-0.754 C 17.887,49.229 14.458,37.138 11.433,26.469 9.292,18.918 7.442,12.396 6.885,10.584 5.784,7.008 1.985,0 0,0"
       style="display:inline;fill:#000000;fill-opacity:1;fill-rule:nonzero;stroke:none"
       transform="matrix(0.35277777,0,0,-0.35277777,5.1067761,102.21432)"
       clip-path="url(#clipPath12)" />
    <path
       id="path37"
       d="m 0,0 -0.526,-1.509 c -0.075,-0.215 -7.542,-21.638 -10.841,-32.688 -3.188,-10.683 -3.956,-21.661 -2.649,-24.833 0.316,-0.77 0.856,-0.885 1.149,-0.885 2.333,0 6.141,7.567 7.124,10.761 0.558,1.813 2.407,8.333 4.547,15.881 3.026,10.671 6.455,22.765 7.619,26.449 L 6.899,-5.315 5.642,-6.276 C 5.21,-6.606 4.781,-6.774 4.367,-6.774 c -1.632,0 -3.217,2.633 -3.939,5.235 z m -0.054,-1.673 c 0.672,-2.421 2.321,-5.601 4.421,-5.601 0.503,0 1.032,0.182 1.579,0.601 -2,-6.334 -10.833,-38 -12.167,-42.334 -1.146,-3.725 -4.88,-10.408 -6.646,-10.408 -0.288,0 -0.524,0.178 -0.687,0.575 -1.167,2.833 -0.667,13.333 2.667,24.5 3.333,11.167 10.833,32.667 10.833,32.667"
       style="display:inline;fill:#ffffff;fill-opacity:1;fill-rule:nonzero;stroke:none"
       transform="matrix(0.35277777,0,0,-0.35277777,9.6458609,81.165909)"
       clip-path="url(#clipPath14)" />
    <path
       id="path38"
       d="M 0,0 C -1.894,0 -3.729,1.668 -4.183,3.211 -4.517,2.964 -4.896,2.835 -5.299,2.835 -6.023,2.835 -6.783,3.243 -7.44,3.984 -8.2,4.841 -8.935,6.324 -8.992,8.143 -10.011,6.638 -11.484,6.194 -13.029,5.729 -14.123,5.4 -15.253,5.06 -16.394,4.339 -17.848,3.42 -19.09,2.974 -20.189,2.974 c -1.367,0 -2.546,0.692 -3.6,2.115 -0.357,-0.11 -0.722,-0.165 -1.09,-0.165 -2.519,0 -4.923,2.646 -5.84,5.249 -0.844,0.221 -1.484,0.679 -1.905,1.365 -0.827,1.349 -0.55,3.163 -0.435,3.733 -0.818,0.572 -4.495,3.58 -2.57,10.193 l 0.052,0.181 h 0.055 c 0.005,0.017 0.011,0.034 0.017,0.052 0.047,0.137 0.097,0.288 0.21,0.357 0.616,0.619 1.933,1.263 2.939,1.698 1.167,0.823 2.18,1.384 3.159,1.927 1.036,0.575 2.015,1.118 3.015,1.902 1.984,1.553 7.253,9.222 8.256,11.729 2.429,3.528 6.113,5.523 10.134,5.523 2.983,0 5.636,-1.149 7.097,-3.075 1.162,-1.532 1.476,-3.414 0.908,-5.442 -0.389,-2 -0.651,-3.524 -0.878,-4.837 -0.453,-2.63 -0.757,-4.394 -1.658,-7.548 0.006,0.012 0.012,0.023 0.019,0.034 0.917,1.645 1.083,1.943 1.2,1.997 0.083,0.085 0.256,0.323 0.375,0.486 0.253,0.348 0.395,0.537 0.518,0.624 0.347,0.668 0.581,1.022 0.789,1.337 0.425,0.644 0.793,1.201 1.995,4.234 1.874,4.725 6.1,6.409 9.429,6.409 2.673,0 5.112,-1.012 6.524,-2.708 1.116,-1.339 1.528,-3.012 1.193,-4.839 -1.437,-7.819 -2.067,-15.812 -1.466,-18.591 l 0.023,-0.103 -0.058,-0.088 c -0.077,-0.116 -0.14,-0.24 -0.203,-0.365 0.063,-0.202 0.129,-0.402 0.22,-0.592 L 18.271,15.69 18.254,15.607 C 18.05,14.614 17.912,13.762 17.795,13.04 17.418,10.704 17.225,9.51 15.532,9.466 15.083,5.532 11.675,3.126 9.363,3.126 c -0.021,0 -0.042,0 -0.063,0 C 8.471,1.255 7.376,0.344 5.959,0.344 4.921,0.344 3.907,0.833 3.012,1.263 L 2.713,1.406 C 1.964,0.485 1.03,0 0,0"
       style="fill:#000000;fill-opacity:1;fill-rule:nonzero;stroke:none"
       transform="matrix(0.35277777,0,0,-0.35277777,12.870286,122.28459)"
       clip-path="url(#clipPath16)" />
    <path
       id="path39"
       d="m 0,0 h -0.001 c -4.103,0 -7.861,-2.034 -10.312,-5.582 l -0.032,-0.046 -0.021,-0.052 c -0.968,-2.421 -6.266,-10.129 -8.177,-11.626 -0.985,-0.771 -1.956,-1.31 -2.984,-1.88 -0.973,-0.539 -1.978,-1.097 -3.123,-1.909 l -0.014,-0.007 c -1.015,-0.439 -2.341,-1.089 -2.994,-1.729 -0.127,-0.09 -0.201,-0.234 -0.249,-0.357 h -0.056 l -0.114,-0.361 c -1.877,-6.449 1.476,-9.573 2.536,-10.372 -0.127,-0.726 -0.309,-2.441 0.497,-3.755 0.434,-0.708 1.081,-1.191 1.926,-1.44 0.979,-2.646 3.442,-5.293 6.032,-5.293 0.334,0 0.667,0.043 0.993,0.128 1.078,-1.398 2.29,-2.078 3.696,-2.078 1.149,0 2.434,0.459 3.929,1.404 1.113,0.702 2.226,1.037 3.303,1.362 1.401,0.421 2.745,0.826 3.77,1.986 0.168,-1.392 0.715,-2.705 1.561,-3.658 0.705,-0.795 1.531,-1.233 2.327,-1.233 0.347,0 0.679,0.084 0.983,0.246 0.609,-1.543 2.39,-3.081 4.317,-3.081 0.748,0 1.811,0.243 2.78,1.347 0.041,-0.019 0.082,-0.039 0.124,-0.059 0.918,-0.442 1.959,-0.944 3.055,-0.944 1.488,0 2.636,0.911 3.502,2.783 2.362,0.066 5.739,2.458 6.292,6.351 1.702,0.141 1.917,1.469 2.289,3.773 0.119,0.735 0.254,1.569 0.457,2.556 l 0.034,0.165 -0.073,0.152 c -0.069,0.143 -0.125,0.302 -0.176,0.462 0.043,0.085 0.089,0.169 0.142,0.249 l 0.116,0.176 -0.044,0.206 c -0.596,2.751 0.035,10.701 1.466,18.493 0.349,1.902 -0.082,3.646 -1.247,5.044 -1.459,1.752 -3.969,2.797 -6.715,2.797 -3.412,0 -7.741,-1.725 -9.661,-6.566 C 8.94,-15.357 8.58,-15.904 8.162,-16.537 7.955,-16.851 7.721,-17.204 7.378,-17.86 7.225,-17.987 7.075,-18.195 6.861,-18.488 6.762,-18.625 6.62,-18.819 6.54,-18.913 6.462,-18.97 6.371,-19.085 6.226,-19.318 c 0.529,2.08 0.793,3.61 1.148,5.671 0.229,1.329 0.488,2.835 0.882,4.852 0.58,2.066 0.252,4.024 -0.959,5.62 C 5.789,-1.187 3.062,0 0,0 m 0,-0.5 c 4.961,0 9.14,-3.29 7.765,-8.199 -1.333,-6.834 -1.163,-8.001 -3.167,-14.5 -0.002,-0.007 -0.003,-0.01 -0.003,-0.01 0.026,0 2.148,3.85 2.172,3.85 10e-4,0 0,-0.002 -0.002,-0.007 0.001,0 0.002,0 0.003,0 0.146,0 0.848,1.167 0.995,1.167 0.001,0 0.001,0 0.002,0 1.085,2.105 1.013,1.075 2.833,5.666 1.732,4.368 5.607,6.252 9.197,6.252 4.356,0 8.292,-2.775 7.47,-7.252 -1.412,-7.689 -2.085,-15.816 -1.463,-18.689 -0.101,-0.152 -0.18,-0.317 -0.263,-0.48 0.076,-0.246 0.152,-0.492 0.263,-0.723 -0.881,-4.284 -0.528,-5.943 -2.575,-5.943 -0.042,0 -0.085,0.001 -0.129,0.002 -0.322,-3.874 -3.616,-6.341 -5.943,-6.341 -0.075,0 -0.15,0.002 -0.223,0.008 -0.907,-2.143 -2.037,-2.79 -3.18,-2.79 -1.169,0 -2.351,0.677 -3.32,1.123 -0.792,-1.055 -1.725,-1.467 -2.639,-1.467 -1.974,0 -3.857,1.921 -4.028,3.44 -0.376,-0.417 -0.815,-0.605 -1.272,-0.605 -1.768,0 -3.792,2.821 -3.395,6.132 -1.5,-3.5 -4.666,-2.667 -7.833,-4.667 -1.396,-0.881 -2.598,-1.326 -3.662,-1.326 -1.35,0 -2.479,0.715 -3.505,2.16 -0.397,-0.144 -0.794,-0.21 -1.184,-0.21 -2.554,0 -4.854,2.824 -5.649,5.21 -3.333,0.75 -2.25,5 -2.25,5 0,0 -4.729,2.735 -2.611,10.011 0.002,0 0.004,0 0.007,0 0,0 0,0 10e-4,0 0.076,0 0.15,0.447 0.228,0.447 0.75,0.792 2.86,1.662 2.958,1.708 2.377,1.696 4.216,2.306 6.167,3.834 2.003,1.568 7.333,9.333 8.333,11.833 C -7.299,-2.1 -3.46,-0.5 0,-0.5"
       style="fill:#000000;fill-opacity:1;fill-rule:nonzero;stroke:none"
       transform="matrix(0.35277777,0,0,-0.35277777,10.12123,104.96917)"
       clip-path="url(#clipPath18)" />
    <path
       id="path40"
       d="m 0,0 c -0.345,0 -0.945,0.224 -2.168,2.161 -0.991,1.568 -2.069,2.468 -2.959,2.468 -0.886,0 -1.567,-0.965 -1.917,-2.717 L -7.106,1.604 -7.392,1.732 -21.09,1.733 C -29.546,1.722 -40.203,1.71 -40.203,1.71 l -0.04,0.202 c -0.351,1.752 -1.032,2.717 -1.918,2.717 -0.89,0 -1.968,-0.9 -2.959,-2.468 C -46.343,0.224 -46.943,0 -47.288,0 c -0.504,0 -0.794,0.532 -0.794,1.46 0,1.415 2.176,7.907 6.528,8.911 0.358,0.083 0.715,0.125 1.058,0.125 3.372,0 4.876,-3.882 5.181,-4.786 h 2.9 v 3.302 c -1.537,1.318 -18.335,15.805 -18.5,19.604 -0.055,1.253 0.194,2.176 0.738,2.745 0.405,0.423 0.956,0.638 1.638,0.638 0.931,0 2.064,-0.401 3.277,-1.16 0.649,-0.606 15,-14.165 17.319,-17.314 2.28,-3.094 5.837,-5.415 5.872,-5.438 l 3.313,-2.209 5.788,0.088 c 0.146,-0.015 0.23,-0.018 0.308,-0.021 0.11,-0.003 0.209,-0.007 0.335,-0.03 l 0.442,0.055 c 0.278,0.831 1.703,4.531 5.05,4.531 0.356,0 0.727,-0.043 1.102,-0.13 C -1.381,9.367 0.794,2.874 0.794,1.46 0.794,1.205 0.771,0.838 0.659,0.541 0.483,0.07 0.171,0 0,0"
       style="fill:#000000;fill-opacity:1;fill-rule:nonzero;stroke:none"
       transform="matrix(0.35277777,0,0,-0.35277777,52.836694,85.889388)"
       clip-path="url(#clipPath20)" />
    <path
       id="path41"
       d="m 0,0 v 0 c -0.742,0 -1.371,-0.247 -1.819,-0.714 -0.593,-0.62 -0.865,-1.605 -0.807,-2.929 0.167,-3.835 15.937,-17.51 18.5,-19.708 v -2.937 H 13.4 c -0.425,1.176 -2.005,4.785 -5.357,4.785 -0.363,0 -0.737,-0.044 -1.115,-0.131 -4.784,-1.104 -6.721,-8.07 -6.721,-9.154 0,-1.544 0.73,-1.711 1.044,-1.711 0.651,0 1.385,0.703 2.379,2.278 0.93,1.472 1.957,2.351 2.748,2.351 1.017,0 1.484,-1.576 1.672,-2.516 l 0.081,-0.402 h 0.41 c 1.589,0 11.173,0.012 19.913,0.024 l 12.601,0.015 0.562,-0.251 0.122,0.614 c 0.188,0.94 0.656,2.516 1.673,2.516 0.79,0 1.818,-0.879 2.748,-2.351 1.274,-2.019 1.941,-2.278 2.379,-2.278 0.314,0 1.043,0.167 1.043,1.711 0,1.084 -1.936,8.05 -6.72,9.154 -0.393,0.091 -0.783,0.137 -1.158,0.137 -3.331,0 -4.839,-3.452 -5.233,-4.547 l -0.291,-0.031 c -0.105,0.015 -0.196,0.019 -0.296,0.022 -0.071,0.002 -0.148,0.004 -0.25,0.017 l -0.034,0.004 -0.034,-0.001 -5.711,-0.086 -3.245,2.164 c -0.041,0.026 -3.563,2.327 -5.813,5.38 C 18.464,-15.408 4.099,-1.834 3.488,-1.258 L 3.452,-1.224 3.41,-1.197 C 2.536,-0.651 1.235,0 0,0 m 0,-0.5 c 0.923,0 2.043,-0.433 3.145,-1.121 0,0 14.917,-14.084 17.25,-17.25 2.333,-3.167 5.937,-5.5 5.937,-5.5 l 3.375,-2.25 5.866,0.089 c 0.261,-0.032 0.386,-0.009 0.593,-0.048 l 0.678,0.074 c 0,0 1.316,4.509 4.86,4.509 0.329,0 0.677,-0.039 1.045,-0.124 4.333,-1 6.333,-7.5 6.333,-8.667 0,-0.605 -0.134,-1.211 -0.543,-1.211 -0.379,0 -0.994,0.521 -1.957,2.045 -1.022,1.619 -2.176,2.584 -3.17,2.584 -0.95,0 -1.756,-0.882 -2.163,-2.918 l -0.088,0.04 c -7.496,-0.009 -30.102,-0.04 -32.62,-0.04 -0.408,2.036 -1.213,2.918 -2.163,2.918 -0.995,0 -2.148,-0.965 -3.171,-2.584 -0.962,-1.524 -1.577,-2.045 -1.956,-2.045 -0.409,0 -0.544,0.606 -0.544,1.211 0,1.167 2,7.667 6.334,8.667 0.351,0.081 0.685,0.118 1.002,0.118 3.59,0 4.998,-4.785 4.998,-4.785 h 3.333 v 3.667 c 0,0 -18.334,15.666 -18.501,19.5 C -2.224,-1.372 -1.311,-0.5 0,-0.5"
       style="fill:#000000;fill-opacity:1;fill-rule:nonzero;stroke:none"
       transform="matrix(0.35277777,0,0,-0.35277777,35.713284,74.512868)"
       clip-path="url(#clipPath22)" />
    <path
       id="path42"
       d="m 0,0 c -0.345,0 -0.945,0.224 -2.168,2.161 -0.991,1.568 -2.069,2.467 -2.959,2.467 -0.886,0 -1.567,-0.964 -1.918,-2.716 L -7.106,1.604 -7.393,1.732 -18.916,1.735 C -27.95,1.724 -40.203,1.71 -40.203,1.71 l -0.04,0.202 c -0.351,1.752 -1.032,2.716 -1.918,2.716 -0.89,0 -1.968,-0.899 -2.959,-2.467 C -46.343,0.224 -46.943,0 -47.288,0 c -0.504,0 -0.794,0.532 -0.794,1.46 0,1.414 2.176,7.906 6.528,8.911 0.358,0.082 0.715,0.124 1.058,0.124 3.371,0 4.876,-3.881 5.181,-4.785 h 2.9 v 3.354 c -0.627,1.183 -8.335,15.783 -8.5,19.552 -0.054,1.244 0.298,2.3 1.018,3.051 0.711,0.744 1.744,1.153 2.907,1.153 0.96,0 1.951,-0.289 2.791,-0.815 l 0.074,-0.046 0.029,-0.081 c 0.053,-0.148 5.347,-14.835 7.632,-17.936 2.305,-3.128 4.434,-5.885 4.455,-5.912 l 3.251,-2.152 5.788,0.088 c 0.145,-0.015 0.229,-0.018 0.306,-0.021 0.112,-0.003 0.211,-0.007 0.337,-0.031 l 0.442,0.056 c 0.278,0.83 1.704,4.531 5.05,4.531 0.356,0 0.727,-0.044 1.101,-0.13 C -1.382,9.366 0.793,2.874 0.793,1.46 0.793,1.205 0.77,0.838 0.659,0.541 0.483,0.07 0.171,0 0,0"
       style="fill:#000000;fill-opacity:1;fill-rule:nonzero;stroke:none"
       transform="matrix(0.35277777,0,0,-0.35277777,37.554395,86.034279)"
       clip-path="url(#clipPath24)" />
    <path
       id="path43"
       d="m 0,0 c -1.232,0 -2.329,-0.436 -3.088,-1.229 -0.768,-0.803 -1.144,-1.921 -1.087,-3.236 0.164,-3.772 7.693,-18.08 8.5,-19.602 v -3.042 H 1.851 c -0.426,1.176 -2.006,4.784 -5.358,4.785 -0.362,0 -0.737,-0.044 -1.114,-0.132 -4.784,-1.104 -6.721,-8.07 -6.721,-9.153 0,-1.544 0.73,-1.711 1.044,-1.711 0.65,0 1.384,0.702 2.379,2.277 0.93,1.473 1.957,2.352 2.748,2.352 1.017,0 1.484,-1.577 1.672,-2.516 l 0.081,-0.402 h 0.409 c 1.589,0 11.173,0.012 19.914,0.023 l 12.6,0.016 0.562,-0.251 0.123,0.614 c 0.188,0.939 0.655,2.516 1.673,2.516 0.79,0 1.817,-0.879 2.747,-2.352 1.275,-2.018 1.941,-2.277 2.38,-2.277 0.313,0 1.043,0.167 1.043,1.711 0,1.083 -1.937,8.049 -6.721,9.153 -0.393,0.091 -0.782,0.137 -1.158,0.137 -3.33,0 -4.838,-3.452 -5.232,-4.546 l -0.292,-0.032 c -0.105,0.015 -0.196,0.019 -0.295,0.022 -0.071,0.003 -0.149,0.005 -0.251,0.017 l -0.034,0.004 h -0.034 l -5.71,-0.087 -3.177,2.119 c -0.335,0.433 -2.295,2.983 -4.402,5.842 -2.264,3.073 -7.545,17.725 -7.598,17.873 L 3.07,-0.944 2.923,-0.852 C 2.044,-0.303 1.006,0 0,0 m 0,-0.5 c 0.895,0 1.833,-0.26 2.658,-0.776 0,0 5.333,-14.834 7.667,-18 2.333,-3.167 4.458,-5.917 4.458,-5.917 l 3.375,-2.25 5.866,0.089 c 0.261,-0.032 0.386,-0.008 0.592,-0.047 l 0.678,0.073 c 0,0 1.317,4.509 4.86,4.509 0.329,0 0.678,-0.039 1.046,-0.124 4.333,-1 6.333,-7.5 6.333,-8.666 0,-0.606 -0.134,-1.211 -0.543,-1.211 -0.38,0 -0.995,0.521 -1.957,2.044 -1.023,1.619 -2.176,2.585 -3.17,2.585 -0.951,0 -1.756,-0.882 -2.163,-2.918 l -0.088,0.039 c -7.496,-0.009 -30.102,-0.039 -32.621,-0.039 -0.407,2.036 -1.212,2.918 -2.162,2.918 -0.995,0 -2.148,-0.966 -3.171,-2.585 -0.962,-1.524 -1.577,-2.044 -1.956,-2.044 -0.409,0 -0.544,0.605 -0.544,1.211 0,1.166 2,7.666 6.333,8.666 0.352,0.081 0.685,0.119 1.002,0.119 3.591,-10e-4 4.998,-4.785 4.998,-4.785 h 3.334 v 3.666 c 0,0 -8.334,15.667 -8.5,19.5 C -3.79,-1.796 -1.998,-0.5 0,-0.5"
       style="display:inline;fill:#000000;fill-opacity:1;fill-rule:nonzero;stroke:none"
       transform="matrix(0.35277777,0,0,-0.35277777,24.505285,74.367948)"
       clip-path="url(#clipPath26)" />
    <path
       id="path44"
       d="m 0,0 c -3.094,0 -8.011,2.357 -11.569,6.866 -2.025,-3.942 -4.577,-5.94 -7.589,-5.94 -5.716,0 -11.273,7.094 -13.099,9.425 l -0.521,0.661 1.001,-0.008 c 8.817,0 14.192,2.435 17.427,7.894 l 0.108,0.182 0.197,-0.076 C -2.355,14.518 5.801,12.243 10.198,12.243 H 10.2 c 1.943,10e-4 3.15,0.442 3.59,1.312 1.006,1.991 -1.891,5.924 -3.808,8.526 -1.329,1.805 -1.779,2.449 -1.587,2.827 0.031,0.062 0.129,0.205 0.369,0.205 0.073,0 0.154,-0.013 0.25,-0.039 3.93,-1.071 5.591,-1.115 16.404,-1.398 l 1.346,-0.033 c 6.48,10e-4 13.012,9.244 13.011,13.48 0,1.26 -0.563,1.898 -1.675,1.898 -2.659,-0.13 -5.255,-0.197 -7.775,-0.197 -2.492,0 -14.931,0.099 -15.047,2.056 -0.025,0.431 -0.092,1.576 11.516,2.951 12.651,1.191 13.84,1.593 28.394,6.505 l 4.727,1.591 c 0.873,0.294 1.474,0.436 1.835,0.436 0.292,0 0.479,-0.095 0.555,-0.282 0.174,-0.43 -0.421,-1.036 -1.487,-2.07 -0.423,-0.41 -1.034,-1.003 -1.212,-1.294 3.806,0.173 9.104,1.678 15.229,3.416 l 1.643,0.467 c 1.533,0.433 2.768,0.653 3.671,0.653 1.549,0 1.924,-0.648 1.965,-1.191 0.127,-1.653 -2.886,-4.437 -4.291,-4.653 -1.103,-0.169 -1.48,-0.282 -2.392,-0.552 -0.519,-0.154 -1.198,-0.355 -2.263,-0.642 0.037,0.002 0.074,0.004 0.112,0.007 2.23,0.14 4.757,0.299 6.703,0.676 0.384,0.078 0.751,0.117 1.09,0.117 1.216,0 2.073,-0.521 2.292,-1.395 0.287,-1.142 -0.552,-3.106 -3.861,-4.882 l -0.478,-0.127 c -0.546,-0.138 -1.37,-0.347 -2.523,-0.583 2.146,0.019 3.849,0.086 7.68,0.326 0.091,0.005 0.179,0.008 0.264,0.008 1.214,0 1.918,-0.607 1.932,-1.666 0.04,-2.968 -5.14,-8.679 -9.804,-8.804 -0.771,-0.038 -1.312,-0.059 -1.721,-0.075 -0.745,-0.028 -1.043,-0.039 -1.553,-0.117 2.288,-0.171 3.076,-0.173 4.572,-0.178 l 0.493,-10e-4 c 3.088,-0.044 3.729,-0.971 3.724,-1.74 -0.024,-3.303 -12.263,-9.215 -24.265,-9.215 -1.229,0 -2.441,0.061 -3.619,0.182 2.796,-1.29 4.211,-2.925 3.933,-4.621 -0.461,-2.808 -5.372,-4.77 -11.942,-4.77 -4.565,0 -9.74,0.915 -15,2.649 1.019,-2.117 1.17,-3.797 0.449,-4.999 -0.757,-1.259 -2.453,-1.925 -4.903,-1.925 -3.402,0 -7.747,1.279 -10.568,3.03 0.688,-1.337 0.784,-2.851 0.208,-4.121 -0.758,-1.67 -2.55,-2.627 -4.917,-2.627 -2.265,0 -4.985,0.821 -8.09,2.44 C 3.546,2.684 3.366,1.783 2.84,1.119 2.258,0.387 1.276,0 0,0"
       style="display:inline;fill:#000000;fill-opacity:1;fill-rule:nonzero;stroke:none"
       transform="matrix(0.35277777,0,0,-0.35277777,93.811974,40.576569)"
       clip-path="url(#clipPath28)" />
    <path
       id="path45"
       d="M 0,0 C -0.927,0 -2.185,-0.223 -3.74,-0.663 L -5.389,-1.13 c -5.811,-1.651 -10.877,-3.089 -14.603,-3.376 0.25,0.268 0.579,0.588 0.834,0.835 1.209,1.173 1.78,1.762 1.544,2.343 -0.066,0.164 -0.257,0.439 -0.786,0.439 -0.394,0 -1.003,-0.143 -1.915,-0.449 -1.719,-0.577 -3.285,-1.106 -4.722,-1.591 -14.532,-4.904 -15.719,-5.305 -28.337,-6.493 -11.854,-1.405 -11.785,-2.582 -11.747,-3.215 0.037,-0.632 0.632,-1.285 4.703,-1.78 2.711,-0.33 6.473,-0.511 10.593,-0.511 2.523,0 5.124,0.066 7.732,0.196 l 0.043,10e-4 c 0.498,0 0.852,-0.134 1.082,-0.408 0.228,-0.272 0.344,-0.689 0.344,-1.241 0,-4.159 -6.407,-13.23 -12.762,-13.23 l -0.178,0.003 -1.158,0.03 c -10.789,0.283 -12.447,0.326 -16.348,1.39 -0.117,0.032 -0.221,0.047 -0.316,0.047 -0.262,0 -0.484,-0.128 -0.592,-0.342 -0.259,-0.512 0.15,-1.106 1.609,-3.087 1.766,-2.399 4.722,-6.413 3.786,-8.266 -0.394,-0.779 -1.527,-1.174 -3.367,-1.174 -4.368,0 -12.495,2.269 -24.156,6.744 l -0.394,0.151 -0.215,-0.363 c -2.144,-3.618 -6.039,-7.771 -17.214,-7.771 l -0.474,0.002 -1.045,0.011 0.648,-0.821 0.196,-0.25 c 1.845,-2.355 7.459,-9.52 13.295,-9.52 3.026,0 5.591,1.929 7.634,5.736 3.587,-4.377 8.44,-6.663 11.525,-6.663 1.355,0 2.405,0.42 3.035,1.214 0.495,0.622 0.709,1.429 0.641,2.406 2.97,-1.498 5.587,-2.256 7.79,-2.256 2.469,0 4.344,1.011 5.144,2.773 0.507,1.118 0.523,2.413 0.095,3.626 2.847,-1.571 6.852,-2.681 10.038,-2.681 2.543,0 4.313,0.708 5.117,2.047 0.706,1.175 0.638,2.758 -0.201,4.715 5.099,-1.629 10.103,-2.487 14.539,-2.487 6.801,0 11.698,2.002 12.187,4.98 0.257,1.562 -0.796,3.062 -2.951,4.307 0.787,-0.051 1.585,-0.077 2.392,-0.077 12.124,0 24.489,6.07 24.514,9.462 0.006,0.883 -0.677,1.945 -3.968,1.992 l -0.505,0.002 c -0.052,0 -0.104,0 -0.154,0 4.442,0.895 8.953,6.11 8.916,8.927 -0.016,1.197 -0.832,1.912 -2.181,1.912 -0.091,0 -0.184,-0.003 -0.281,-0.009 -2.35,-0.147 -3.897,-0.229 -5.238,-0.274 0.056,0.014 0.109,0.027 0.16,0.04 0.165,0.042 0.302,0.077 0.412,0.103 l 0.064,0.015 0.057,0.031 c 2.828,1.517 4.392,3.544 3.986,5.163 -0.25,0.992 -1.197,1.584 -2.534,1.585 -0.356,0 -0.74,-0.042 -1.142,-0.123 -1.294,-0.251 -2.856,-0.405 -4.416,-0.521 0.89,0.264 1.265,0.374 2.345,0.541 1.514,0.232 4.64,3.125 4.503,4.918 C 2.173,-0.891 1.832,0 0,0 m 0,-0.5 c 4.275,0 -0.55,-5.067 -2.365,-5.346 -2.167,-0.334 -1.623,-0.462 -7.337,-1.886 2.813,0.25 6.75,0.333 9.584,0.882 0.378,0.077 0.726,0.113 1.042,0.113 3.002,-0.001 3.062,-3.258 -1.688,-5.808 -0.711,-0.169 -2.521,-0.687 -5.75,-1.187 4,0 5.229,0 10.562,0.333 0.087,0.006 0.169,0.008 0.25,0.008 4.864,-10e-4 -1.772,-9.806 -7.88,-9.97 -3.333,-0.166 -2.307,0.004 -5.203,-0.538 4.208,-0.351 4.772,-0.324 7,-0.333 10.447,-0.149 -4.496,-10.454 -20.539,-10.454 -1.874,0 -3.763,0.14 -5.628,0.454 10.179,-3.434 5.923,-9.664 -6,-9.664 -4.282,0 -9.555,0.805 -15.5,2.831 2.798,-5.257 0.076,-7.106 -3.955,-7.106 -3.893,0 -9.007,1.725 -11.545,3.772 2.498,-2.854 1.516,-7.49 -3.732,-7.49 -2.107,0 -4.902,0.747 -8.434,2.657 0.639,-2.746 -0.758,-4.021 -3.032,-4.021 -3.212,0 -8.174,2.546 -11.614,7.083 -2.231,-4.539 -4.886,-6.156 -7.545,-6.156 -5.834,0 -11.684,7.788 -13.099,9.58 0.162,-0.002 0.32,-0.002 0.479,-0.002 10.429,0 15.017,3.583 17.644,8.016 12.952,-4.971 20.359,-6.777 24.335,-6.777 10.608,0 -3.222,12.87 -1.436,12.869 0.049,0 0.11,-0.01 0.184,-0.03 4.097,-1.116 5.75,-1.125 17.625,-1.437 0.064,-0.002 0.127,-0.003 0.191,-0.003 8.792,0 17.141,15.879 11.336,15.879 -0.023,0 -0.046,-10e-4 -0.068,-10e-4 -2.679,-0.134 -5.279,-0.196 -7.707,-0.196 -14.526,0 -22.78,2.224 -3.502,4.508 13.938,1.313 14.185,1.734 33.172,8.108 0.885,0.297 1.441,0.423 1.755,0.423 1.669,0 -3.502,-3.551 -2.243,-3.656 4.167,0.167 9.981,1.904 17.039,3.901 C -2.001,-0.691 -0.829,-0.5 0,-0.5"
       style="display:inline;fill:#000000;fill-opacity:1;fill-rule:nonzero;stroke:none"
       transform="matrix(0.35277777,0,0,-0.35277777,122.08711,21.702009)"
       clip-path="url(#clipPath30)" />
  </g>
  <g
     inkscape:label="KurrawongAI"
     inkscape:groupmode="layer"
     id="layer1"
     transform="translate(-25.9478,-87.312503)"
     style="display:inline">
    <text
       xml:space="preserve"
       style="font-size:70.5556px;font-family:Candara;-inkscape-font-specification:Candara;text-align:start;letter-spacing:1.05833px;writing-mode:lr-tb;direction:ltr;text-anchor:start;display:inline;fill:#ffffff;stroke:#ffffff;stroke-width:2"
       x="41.529758"
       y="218.88733"
       id="text1-1"
       inkscape:label="text-inverted"><tspan
         sodipodi:role="line"
         id="tspan1-8"
         style="font-size:70.5556px;fill:#ffffff;stroke:#ffffff;stroke-width:2"
         x="41.529758"
         y="218.88733">KurrawongAI</tspan></text>
  </g>
</svg>
